<svg xmlns="http://www.w3.org/2000/svg" version="1.1" xmlns:xlink="http://www.w3.org/1999/xlink" xmlns:svgjs="http://svgjs.dev/svgjs" width="100%" height="100%" viewBox="0 0 1000 600"><rect width="1000" height="600" x="0" y="0" fill="#295f2d"/><g><rect width="333.3333333333333" height="333.3333333333333" y="244.79730833273135" fill="#02e5fa" transform="matrix(0.5616083131193036,0,0,0.5616083131193036,-3.940369801781265,68.91842446987731)" x="238.57962036132812"/><path d="M284.5480350352326 484.8525953134972Q278.63962960956275 484.8525953134972 270.89368182662724 484.23065790026885L270.89368182662724 484.23065790026885Q268.0384237022605 484.03276872333254 263.6848618096617 483.8348795463962Q259.30303003464337 483.6369903694599 254.01656202220198 483.6369903694599L254.01656202220198 483.6369903694599L240.16431963666034 483.8348795463962Q236.48923492212887 484.03276872333254 229.98716196565016 484.03276872333254L229.98716196565016 484.03276872333254Q229.59138361177753 484.03276872333254 229.59138361177753 482.8171637792952Q229.59138361177753 481.60155883525783 229.98716196565016 481.60155883525783L229.98716196565016 481.60155883525783Q237.7331097485857 481.60155883525783 241.29511493343924 480.58384306815685Q244.8571201182928 479.5661273010558 246.15753470958856 476.59778964701115Q247.48621918330377 473.657721875386 247.48621918330377 467.5514272727799L247.48621918330377 467.5514272727799L247.48621918330377 373.29963928625773Q247.48621918330377 367.1933446836516 246.27061423926645 364.3380865592849Q245.05500929522913 361.5110983173376 241.49300411037555 360.38030302055864Q237.93099892552198 359.2495077237798 230.18505114258645 359.2495077237798L230.18505114258645 359.2495077237798Q229.78927278871384 359.2495077237798 229.78927278871384 358.03390277974245Q229.78927278871384 356.8182978357051 230.18505114258645 356.8182978357051L230.18505114258645 356.8182978357051L240.36220881359665 357.0161870126414Q248.9279831866969 357.4402352489335 254.01656202220198 357.4402352489335L254.01656202220198 357.4402352489335Q261.7342399227181 357.4402352489335 269.28229852871726 356.8182978357051L269.28229852871726 356.8182978357051Q278.21558137327065 356.42251948183247 281.6927769108658 356.42251948183247L281.6927769108658 356.42251948183247Q302.86691884305094 356.42251948183247 319.15037111666726 364.56424561864065Q335.4338233902835 372.7059717554488 344.48018576451483 386.7278334355073Q353.5265481387461 400.77796499798524 353.5265481387461 418.2770222156389L353.5265481387461 418.2770222156389Q353.5265481387461 438.0376700268504 344.2822965875785 453.19032700368774Q335.0097751539914 468.3712538629446 319.15037111666726 476.59778964701115Q303.26269719692357 484.8525953134972 284.5480350352326 484.8525953134972L284.5480350352326 484.8525953134972ZM282.5126035010305 481.79944801219415Q298.79605577464685 481.79944801219415 311.4044233337317 474.98640634910123Q324.01279089281655 468.1450948035888 331.05199161526525 454.82998018401713Q338.0629224552945 441.486595682026 338.0629224552945 422.77193352033504L338.0629224552945 422.77193352033504Q338.0629224552945 405.04671724332565 331.3629603218794 390.6008073269751Q324.63472830604496 376.15489741062447 312.2242499238964 367.81528209688Q299.8137715417479 359.4756667831355 283.53031926813156 359.4756667831355L283.53031926813156 359.4756667831355Q274.76665571809497 359.4756667831355 269.9890455892041 360.49338255023656Q265.2114354603132 361.5110983173376 262.94984486675537 364.56424561864065Q260.71652415561704 367.6173929199437 260.71652415561704 373.7236875225498L260.71652415561704 373.7236875225498L260.71652415561704 465.31810656164157Q260.71652415561704 471.4244011642477 262.4409869832049 474.87332681942337Q264.1937196932122 478.322252474599 268.9713298221031 480.07498518460636Q273.748939950994 481.79944801219415 282.5126035010305 481.79944801219415L282.5126035010305 481.79944801219415ZM437.2054001003854 472.640006108285L437.4032892773218 472.640006108285Q437.9969568081307 472.640006108285 438.50581469168117 473.3467531687718Q439.01467257523166 474.05350022925865 438.6188942213591 474.67543764248705L438.6188942213591 474.67543764248705Q424.76665183581747 486.4639786114072 408.90724779849324 486.4639786114072L408.90724779849324 486.4639786114072Q396.89254777021733 486.4639786114072 388.1288842201808 480.9796214220295Q379.39349055256366 475.4952642326517 375.0116587775454 466.6185211529373Q370.6298270025271 457.7700479556423 370.6298270025271 447.39500110769586L370.6298270025271 447.39500110769586Q370.6298270025271 435.1824119024836 376.42515289851906 425.2031434084097Q382.2487486769304 415.22387491433585 392.19974728858483 409.4285490183439Q402.1790157826587 403.633223122352 414.39160498787095 403.633223122352L414.39160498787095 403.633223122352Q425.3885892490458 403.633223122352 431.49488385165193 409.0327706644713Q437.60117845425805 414.4323182065906 437.60117845425805 423.7896492874361L437.60117845425805 423.7896492874361Q437.60117845425805 426.2208591755107 437.09232057070756 427.3516544722896Q436.58346268715707 428.4541798866491 435.1699685661834 428.4541798866491L435.1699685661834 428.4541798866491L385.0757369188777 428.87822812294115Q384.05802115177664 434.36258531231886 384.05802115177664 439.451164147824L384.05802115177664 439.451164147824Q384.05802115177664 457.1763804248334 392.6237955248769 468.25817433326677Q401.1613000155577 479.33996824170003 416.22914734513665 479.33996824170003L416.22914734513665 479.33996824170003Q427.8197991371205 479.33996824170003 437.2054001003854 472.640006108285L437.2054001003854 472.640006108285ZM407.4654837951001 407.7040861907561Q399.12586848135567 407.7040861907561 393.52843176230004 412.48169631964697Q387.9309950432445 417.25930644853787 385.6976743321061 426.0229699985744L385.6976743321061 426.0229699985744L423.5510468917801 425.2031434084097Q423.5510468917801 416.86352809466524 419.16921511676185 412.28380714271066Q414.81565322416304 407.7040861907561 407.4654837951001 407.7040861907561L407.4654837951001 407.7040861907561ZM534.0862871519187 405.47076547961774Q534.4820655057913 405.47076547961774 534.4820655057913 406.68637042365503Q534.4820655057913 407.9019753676924 534.0862871519187 407.9019753676924L534.0862871519187 407.9019753676924Q528.7998191394772 407.9019753676924 525.2378139546237 411.15301184593176Q521.6758087697701 414.4323182065906 518.3965024091112 422.77193352033504L518.3965024091112 422.77193352033504L492.95360823158575 483.8348795463962Q492.5578298777131 484.8525953134972 490.7202875204474 484.8525953134972L490.7202875204474 484.8525953134972Q488.88274516318165 484.8525953134972 488.486966809309 483.8348795463962L488.486966809309 483.8348795463962L459.99092533048054 422.34788528404295Q455.9200622620764 413.61249161642587 453.17788366738756 410.75723349205913Q450.43570507269874 407.9019753676924 446.36484200429464 407.9019753676924L446.36484200429464 407.9019753676924Q445.74290459106624 407.9019753676924 445.74290459106624 406.68637042365503Q445.74290459106624 405.47076547961774 446.36484200429464 405.47076547961774L446.36484200429464 405.47076547961774Q450.43570507269874 405.47076547961774 452.66902578383707 405.66865465655405L452.66902578383707 405.66865465655405L460.3867036843531 405.86654383349037L473.61700865666637 405.66865465655405Q476.6701559579694 405.47076547961774 481.75873479347456 405.47076547961774L481.75873479347456 405.47076547961774Q482.3806722067029 405.47076547961774 482.3806722067029 406.68637042365503Q482.3806722067029 407.9019753676924 481.75873479347456 407.9019753676924L481.75873479347456 407.9019753676924Q469.54614558826233 407.9019753676924 469.54614558826233 412.79266502626115L469.54614558826233 412.79266502626115Q469.54614558826233 414.2061591472348 470.365972178427 415.8458123275642L470.365972178427 415.8458123275642L495.2151988251436 468.3712538629446L514.3256393407072 421.75421775323406Q515.7674033441003 417.8812438617663 515.7674033441003 415.8458123275642L515.7674033441003 415.8458123275642Q515.7674033441003 411.77494925916017 511.8944294526325 409.852597254636Q508.02145556116477 407.9019753676924 499.68184024742027 407.9019753676924L499.68184024742027 407.9019753676924Q499.28606189354764 407.9019753676924 499.28606189354764 406.68637042365503Q499.28606189354764 405.47076547961774 499.68184024742027 405.47076547961774L499.68184024742027 405.47076547961774Q505.16619743679803 405.47076547961774 508.02145556116477 405.66865465655405L508.02145556116477 405.66865465655405L520.234044766377 405.86654383349037L527.3580551360841 405.66865465655405Q529.3934866702862 405.47076547961774 534.0862871519187 405.47076547961774L534.0862871519187 405.47076547961774ZM542.8216808195357 484.03276872333254Q542.2280132887269 484.03276872333254 542.2280132887269 482.8171637792952Q542.2280132887269 481.60155883525783 542.8216808195357 481.60155883525783L542.8216808195357 481.60155883525783Q548.3343078913329 481.60155883525783 550.9634069563439 480.470763538479Q553.6207759037743 479.33996824170003 554.6384916708753 476.39990047007484Q555.6562074379764 473.4598326984497 555.6562074379764 467.5514272727799L555.6562074379764 467.5514272727799L555.6562074379764 362.30265502508286Q555.6562074379764 354.9807554784394 554.2427133170027 351.7297190002Q552.8009493136095 348.47868252196065 549.1541344814976 348.47868252196065L549.1541344814976 348.47868252196065Q546.1009871801946 348.47868252196065 539.7685335182326 351.3339406463274L539.7685335182326 351.3339406463274L539.37275516436 351.3339406463274Q538.7508177511316 351.3339406463274 538.4681189269369 350.31622487922635Q538.1571502203227 349.2985091121254 538.7508177511316 349.0723500527696L538.7508177511316 349.0723500527696L564.8156493418855 336.661871670621Q565.2114276957581 336.46398249368474 565.8333651089865 336.46398249368474L565.8333651089865 336.46398249368474Q566.2291434628592 336.46398249368474 566.9641604057655 336.97284037723523Q567.6709074662523 337.4816982607858 567.6709074662523 338.10363567401413L567.6709074662523 338.10363567401413L567.6709074662523 467.5514272727799Q567.6709074662523 473.4598326984497 568.5755437036754 476.286820940397Q569.508449823518 479.1420790647637 572.137548888529 480.3576840088011Q574.7949178359594 481.60155883525783 580.2792750253371 481.60155883525783L580.2792750253371 481.60155883525783Q580.9012124385655 481.60155883525783 580.9012124385655 482.8171637792952Q580.9012124385655 484.03276872333254 580.2792750253371 484.03276872333254L580.2792750253371 484.03276872333254Q575.8126336030604 484.03276872333254 572.9573754786937 483.8348795463962L572.9573754786937 483.8348795463962L561.5646128636462 483.6369903694599L550.5676286024712 483.8348795463962Q547.7123704781045 484.03276872333254 542.8216808195357 484.03276872333254L542.8216808195357 484.03276872333254Z " fill="#295f2d" transform="matrix(0.5616083131193036,0,0,0.5616083131193036,-3.940369801781265,68.91842446987731)"/><path d="M752.5797723863735 338.58631769345453L753.0368903800121 367.4827051484643Q753.0368903800121 368.201033424182 751.8614441106557 368.3316385652216Q750.6859978412995 368.4295924210013 750.4574388444802 367.74391543054344L750.4574388444802 367.74391543054344Q749.7391105687624 355.27112446126245 742.9476432347036 348.34905198616406Q736.1235246153849 341.39432822580574 724.8261799154602 341.39432822580574L724.8261799154602 341.39432822580574L710.4922656863649 341.39432822580574Q702.4927007976898 341.39432822580574 698.5092439959824 342.56977449516205Q694.4931359090149 343.74522076451836 692.9911767870597 346.8144415789488Q691.4565663798444 349.85101110811934 691.4565663798444 355.728242454901L691.4565663798444 355.728242454901L691.4565663798444 407.21931930976024L715.1940507637903 407.21931930976024Q727.6668417330714 407.21931930976024 732.9563499451748 403.33381636383234Q738.2458581572782 399.4809647031644 738.2458581572782 390.7630715387716L738.2458581572782 390.7630715387716Q738.2458581572782 390.30595354513304 739.6498634234539 390.30595354513304Q741.0538686896296 390.30595354513304 741.0538686896296 390.7630715387716L741.0538686896296 390.7630715387716L740.8253096928103 409.79877084529215Q740.8253096928103 416.62288946461086 741.0538686896296 420.14922827267986L741.0538686896296 420.14922827267986L741.2824276864487 431.4465729726046Q741.2824276864487 431.9036909662432 739.8784224202732 431.9036909662432Q738.4744171540976 431.9036909662432 738.4744171540976 431.4465729726046L738.4744171540976 431.4465729726046Q738.4744171540976 421.0961155452169 732.9563499451748 416.62288946461086Q727.4056314509921 412.14966338400484 714.4757224880725 412.14966338400484L714.4757224880725 412.14966338400484L691.4565663798444 412.14966338400484L691.4565663798444 463.41218124204477Q691.4565663798444 470.92197685182134 693.4482947806982 474.3503618041106Q695.4400231815519 477.74609547114005 701.3172545283336 479.15010073731565Q707.1944858751152 480.5867572887512 719.8958358412156 480.5867572887512L719.8958358412156 480.5867572887512Q720.6141641169334 480.5867572887512 720.6141641169334 481.99076255492673Q720.6141641169334 483.3947678211024 719.8958358412156 483.3947678211024L719.8958358412156 483.3947678211024Q710.2637066895456 483.3947678211024 704.8435933364026 483.1662088242831L704.8435933364026 483.1662088242831L683.6855604879886 482.9376498274638L667.7190819958985 483.1662088242831Q663.4744149121118 483.3947678211024 655.703409020256 483.3947678211024L655.703409020256 483.3947678211024Q655.2462910266174 483.3947678211024 655.2462910266174 481.99076255492673Q655.2462910266174 480.5867572887512 655.703409020256 480.5867572887512L655.703409020256 480.5867572887512Q664.649861181468 480.5867572887512 668.8945282652548 479.4113110193948Q673.1065440637817 478.2358647500385 674.6411544709969 474.80747979774924Q676.175764878212 471.4117461307198 676.175764878212 464.35906851458185L676.175764878212 464.35906851458185L676.175764878212 355.49968345808173Q676.175764878212 348.44700584194374 674.6411544709969 345.149226030694Q673.1065440637817 341.8840975047042 668.9924821210345 340.57804609430826Q664.8784201782873 339.2719946839124 655.9646193023352 339.2719946839124L655.9646193023352 339.2719946839124Q655.4748500234367 339.2719946839124 655.4748500234367 337.86798941773674Q655.4748500234367 336.46398415156114 655.9646193023352 336.46398415156114L655.9646193023352 336.46398415156114L750.4574388444802 336.46398415156114Q752.5797723863735 336.46398415156114 752.5797723863735 338.58631769345453L752.5797723863735 338.58631769345453ZM856.2476030865498 470.69341785500205L856.7047210801884 470.69341785500205Q857.6516083527255 470.69341785500205 857.8801673495448 471.7709102685787Q858.1413776316239 472.8157513968954 857.1944903590869 473.27286939053397L857.1944903590869 473.27286939053397L832.9672366962426 484.798773087278Q832.0203494237055 485.28854236617644 831.1061134364284 485.28854236617644L831.1061134364284 485.28854236617644Q828.0368926219979 485.28854236617644 825.6860000832852 481.27243427920905Q823.3351075445726 477.2889774775015 822.6167792688549 470.2362998613635L822.6167792688549 470.2362998613635L808.0543060429403 477.97465446795934Q800.7730694299831 481.76220355810744 796.0712843525577 483.3947678211024Q791.3694992751324 485.0273320840973 786.8962731945263 485.0273320840973L786.8962731945263 485.0273320840973Q779.6150365815691 485.0273320840973 775.7295336356412 481.1744804234293Q771.8440306897133 477.2889774775015 771.8440306897133 471.4117461307198L771.8440306897133 471.4117461307198Q771.8440306897133 465.0447455050397 776.6764209081783 461.1918938443717Q781.4761598413833 457.30639089844385 793.9489508106643 453.0617238146571L793.9489508106643 453.0617238146571L822.3882202720356 442.97247666934857L822.3882202720356 423.4470080839296Q822.3882202720356 407.937647585478 818.404763470328 401.70125210083745Q814.3886553833605 395.4648566161969 807.3359777672225 395.4648566161969L807.3359777672225 395.4648566161969Q799.3690641638075 395.4648566161969 794.8958380832014 401.11352896615927Q790.4226120025954 406.76220131612166 789.4757247300583 414.7617662047967L789.4757247300583 414.7617662047967Q788.5288374575213 423.67556708074886 780.7904828509255 423.67556708074886L780.7904828509255 423.67556708074886Q777.0355850460371 423.67556708074886 774.9132515041438 421.8144438209347Q772.7909179622504 419.9206692758606 772.7909179622504 416.62288946461086L772.7909179622504 416.62288946461086Q772.7909179622504 411.2354273967277 779.8435955783884 405.09698576786684Q786.8962731945263 398.9911954242659 796.8875664840551 394.77917962573906Q806.8788597735839 390.5345125419523 814.878424662259 390.5345125419523L814.878424662259 390.5345125419523Q824.2819948171096 390.5345125419523 829.9306671670721 396.99946702341214Q835.5466882317745 403.46442150487195 835.5466882317745 416.3943304677916L835.5466882317745 416.3943304677916L835.5466882317745 457.9920678889017Q835.5466882317745 466.22019177439597 837.6690217736679 470.0077408645442Q839.7913553155612 473.7626386694325 844.7216993898058 473.7626386694325L844.7216993898058 473.7626386694325Q849.1949254704119 473.7626386694325 856.2476030865498 470.69341785500205L856.2476030865498 470.69341785500205ZM808.0543060429403 474.21975666307105L822.3882202720356 466.93852005011377L822.3882202720356 465.53451478393816L822.3882202720356 445.7804872016998L798.1936178944511 454.95549835973117Q792.7735045413081 457.07783190162456 790.5532171436349 459.65728343715654Q788.300278460702 462.2367349726884 788.300278460702 466.22019177439597L788.300278460702 466.22019177439597Q788.300278460702 471.1831871339005 791.1409402783131 473.86059252521216Q793.9489508106643 476.5706492017837 798.4221768912704 476.5706492017837L798.4221768912704 476.5706492017837Q802.8954029718765 476.5706492017837 808.0543060429403 474.21975666307105L808.0543060429403 474.21975666307105ZM956.1605359818378 392.6568460838457Q956.6176539754764 392.6568460838457 956.6176539754764 394.0608513500213Q956.6176539754764 395.4648566161969 956.1605359818378 395.4648566161969L956.1605359818378 395.4648566161969Q950.054745638237 395.4648566161969 945.9406836954898 399.2197544210852Q941.8266217527427 403.0073035112334 938.0717239478544 412.6394326629033L938.0717239478544 412.6394326629033L908.6855672139461 483.1662088242831Q908.1957979350476 484.3416550936394 906.0734643931543 484.3416550936394L906.0734643931543 484.3416550936394Q903.9837821365207 484.3416550936394 903.4940128576224 483.1662088242831L903.4940128576224 483.1662088242831L870.5815173156451 412.14966338400484Q865.8797322382198 402.06041623869635 862.7125575680096 398.76263642744664Q859.5453828977995 395.4648566161969 854.8435978203743 395.4648566161969L854.8435978203743 395.4648566161969Q854.1252695446565 395.4648566161969 854.1252695446565 394.0608513500213Q854.1252695446565 392.6568460838457 854.8435978203743 392.6568460838457L854.8435978203743 392.6568460838457Q859.5453828977995 392.6568460838457 862.1248344333314 392.88540508066495L862.1248344333314 392.88540508066495L871.0712865945436 393.11396407748424L886.3520880961759 392.88540508066495Q889.8784269042449 392.6568460838457 895.7556582510265 392.6568460838457L895.7556582510265 392.6568460838457Q896.4413352414844 392.6568460838457 896.4413352414844 394.0608513500213Q896.4413352414844 395.4648566161969 895.7556582510265 395.4648566161969L895.7556582510265 395.4648566161969Q881.6503030187505 395.4648566161969 881.6503030187505 401.11352896615927L881.6503030187505 401.11352896615927Q881.6503030187505 402.7460932291542 882.5645390060278 404.63986777422826L882.5645390060278 404.63986777422826L911.2650187494781 465.3059557871189L933.3699388704291 411.463986393547Q935.002503133424 406.99076031294095 935.002503133424 404.63986777422826L935.002503133424 404.63986777422826Q935.002503133424 399.93808269680295 930.529277052818 397.7177952991299Q926.0560509722119 395.4648566161969 916.423921820542 395.4648566161969L916.423921820542 395.4648566161969Q915.9668038269034 395.4648566161969 915.9668038269034 394.0608513500213Q915.9668038269034 392.6568460838457 916.423921820542 392.6568460838457L916.423921820542 392.6568460838457Q922.790922446222 392.6568460838457 926.0560509722119 392.88540508066495L926.0560509722119 392.88540508066495L940.1614062044879 393.11396407748424L948.3895300899821 392.88540508066495Q950.7404226286948 392.6568460838457 956.1605359818378 392.6568460838457L956.1605359818378 392.6568460838457ZM969.3190039415769 483.3947678211024Q968.8618859479383 483.3947678211024 968.8618859479383 481.99076255492673Q968.8618859479383 480.5867572887512 969.3190039415769 480.5867572887512L969.3190039415769 480.5867572887512Q975.6860045672569 480.5867572887512 978.8531792374671 479.2807058783552Q982.0203539076771 477.97465446795934 983.1958001770334 474.57892080092995Q984.3712464463898 471.1831871339005 984.3712464463898 464.35906851458185L984.3712464463898 464.35906851458185L984.3712464463898 420.37778726949915Q984.3712464463898 411.92110438718555 982.6080770423554 408.16620658229726Q980.8449076383208 404.411308777409 976.600240554534 404.411308777409L976.600240554534 404.411308777409Q972.3882247560073 404.411308777409 966.0212241303271 407.7090885886587L966.0212241303271 407.7090885886587L965.7926651335077 407.7090885886587Q964.8457778609708 407.7090885886587 964.3886598673322 406.5336423193024Q963.9315418736936 405.35819604994606 964.6172188641515 404.86842677104755L964.6172188641515 404.86842677104755L995.1788218674161 390.7630715387716L996.1257091399531 390.5345125419523Q996.5828271335916 390.5345125419523 997.3011554093094 391.12223567663045Q998.0194836850272 391.70995881130864 998.0194836850272 392.42828708702643L998.0194836850272 392.42828708702643Q998.0194836850272 394.0608513500213 997.758273402948 401.83185724187706Q997.5297144061286 409.57021184847287 997.5297144061286 420.14922827267986L997.5297144061286 420.14922827267986L997.5297144061286 464.35906851458185Q997.5297144061286 471.4117461307198 998.705160675485 474.70952594196956Q999.8806069448414 477.97465446795934 1002.9498277592719 479.2807058783552Q1005.9863972884424 480.5867572887512 1012.3533979141224 480.5867572887512L1012.3533979141224 480.5867572887512Q1013.0390749045803 480.5867572887512 1013.0390749045803 481.99076255492673Q1013.0390749045803 483.3947678211024 1012.3533979141224 483.3947678211024L1012.3533979141224 483.3947678211024Q1006.9332845609794 483.3947678211024 1003.6355047497296 483.1662088242831L1003.6355047497296 483.1662088242831L990.9668060688892 482.9376498274638L978.2654561027888 483.1662088242831Q974.9676762915391 483.3947678211024 969.3190039415769 483.3947678211024L969.3190039415769 483.3947678211024ZM989.0730315238152 363.0421303531181Q984.1426874495705 363.0421303531181 981.432630772999 360.4300275323263Q978.7225740964275 357.85057599679436 978.7225740964275 353.14879091936905L978.7225740964275 353.14879091936905Q978.7225740964275 348.44700584194374 981.432630772999 345.8675543064118Q984.1426874495705 343.28810277087985 989.0730315238152 343.28810277087985L989.0730315238152 343.28810277087985Q993.7748166012404 343.28810277087985 996.3542681367724 345.8675543064118Q998.9337196723044 348.44700584194374 998.9337196723044 353.14879091936905L998.9337196723044 353.14879091936905Q998.9337196723044 357.85057599679436 996.3542681367724 360.4300275323263Q993.7748166012404 363.0421303531181 989.0730315238152 363.0421303531181L989.0730315238152 363.0421303531181ZM1075.3377271804657 486.2027783534536Q1060.0569256788335 486.2027783534536 1049.7391195367059 479.5092648751745Q1039.388662109318 472.8157513968954 1034.4583180350733 462.2367349726884Q1029.4953226755688 451.6577185484815 1029.4953226755688 439.90325585491814L1029.4953226755688 439.90325585491814Q1029.4953226755688 424.8510133501052 1037.0377695706054 413.68427379122005Q1044.5475651803818 402.5175342323349 1056.4326330149847 396.54234902977356Q1068.285049564328 390.5345125419523 1080.757840533609 390.5345125419523L1080.757840533609 390.5345125419523Q1091.1082979609964 390.5345125419523 1099.6955859843497 394.64857448469945Q1108.2502227224431 398.76263642744664 1108.2502227224431 404.86842677104755L1108.2502227224431 404.86842677104755Q1108.2502227224431 407.937647585478 1106.0299353247701 410.15793498315105Q1103.8096479270969 412.41087366608406 1100.0220988369488 412.41087366608406L1100.0220988369488 412.41087366608406Q1093.6877494965283 412.41087366608406 1089.704292694821 404.63986777422826L1089.704292694821 404.63986777422826Q1086.6350718803906 399.93808269680295 1083.1087330723217 397.58719015809027Q1079.5823942642526 395.23629761937764 1072.986834641753 395.23629761937764L1072.986834641753 395.23629761937764Q1059.8283666820143 395.23629761937764 1052.4165249280172 405.45614990572574Q1045.0373344592804 415.67600219207384 1045.0373344592804 432.8505782387802L1045.0373344592804 432.8505782387802Q1045.0373344592804 452.60460582101854 1054.8980226077697 465.3059557871189Q1064.758710756259 477.97465446795934 1084.512738338497 477.97465446795934L1084.512738338497 477.97465446795934Q1098.8466525675926 477.97465446795934 1108.5114330045221 470.2362998613635L1108.5114330045221 470.2362998613635L1108.7399920013415 470.2362998613635Q1109.4256689917993 470.2362998613635 1110.0133921264774 470.92197685182134Q1110.6011152611559 471.6403051275391 1110.143997267517 472.09742312117766L1110.143997267517 472.09742312117766Q1101.9158733820227 479.4113110193948 1093.557144355489 482.8070446864242Q1085.2310666142148 486.2027783534536 1075.3377271804657 486.2027783534536L1075.3377271804657 486.2027783534536ZM1170.5488749983285 486.4639886355328Q1156.933289044951 486.4639886355328 1146.4522264765237 479.7378238719938Q1136.0038151933563 473.0443103937147 1130.3551428433939 461.6490118380103Q1124.7064704934317 450.25371328230585 1124.7064704934317 436.8340350404878L1124.7064704934317 436.8340350404878Q1124.7064704934317 421.55323353885547 1132.1183122474285 410.8762632588688Q1139.5301540014252 400.16664169362224 1151.1540115539492 394.87713348151874Q1162.8105203917328 389.5876252694153 1174.7935420821154 389.5876252694153L1174.7935420821154 389.5876252694153Q1188.6703383175718 389.5876252694153 1199.0207957449597 396.41174388873395Q1209.3386018870874 403.23586250805266 1214.88932038127 414.4026020669378Q1220.407387590193 425.5693416258229 1220.407387590193 438.0094813098441L1220.407387590193 438.0094813098441Q1220.407387590193 452.60460582101854 1213.583268970874 463.5427863830844Q1206.7591503515555 474.44831565989034 1195.3638517958511 480.4561521477116Q1183.9685532401468 486.4639886355328 1170.5488749983285 486.4639886355328L1170.5488749983285 486.4639886355328ZM1177.3729936176471 481.99076255492673Q1190.3029025805668 481.99076255492673 1197.3555801967048 472.8157513968954Q1204.4082578128427 463.64074023886405 1204.4082578128427 444.6050409323435L1204.4082578128427 444.6050409323435Q1204.4082578128427 430.04256770642894 1199.6085188796378 418.516664009685Q1194.776128661173 406.99076031294095 1186.3194457788593 400.52580583148114Q1177.8627628965455 394.0608513500213 1167.0225361902594 394.0608513500213L1167.0225361902594 394.0608513500213Q1154.353837509419 394.0608513500213 1147.3991137490607 403.23586250805266Q1140.4770412739626 412.41087366608406 1140.4770412739626 429.5527984275305L1140.4770412739626 429.5527984275305Q1140.4770412739626 443.8867126566257 1145.1788263513877 455.9023856322682Q1149.8806114288132 467.88540732265085 1158.3372943111267 474.93808493878873Q1166.7939771934402 481.99076255492673 1177.3729936176471 481.99076255492673L1177.3729936176471 481.99076255492673ZM1345.233251138783 480.5867572887512Q1345.9515794145009 480.5867572887512 1345.9515794145009 481.99076255492673Q1345.9515794145009 483.3947678211024 1345.233251138783 483.3947678211024L1345.233251138783 483.3947678211024Q1339.8131377856398 483.3947678211024 1336.7765682564695 483.1662088242831L1336.7765682564695 483.1662088242831L1324.0752182903693 482.9376498274638L1311.1453093274495 483.1662088242831Q1308.0760885130194 483.3947678211024 1302.688626445136 483.3947678211024L1302.688626445136 483.3947678211024Q1301.9702981694181 483.3947678211024 1301.9702981694181 481.99076255492673Q1301.9702981694181 480.5867572887512 1302.688626445136 480.5867572887512L1302.688626445136 480.5867572887512Q1309.0229757855564 480.5867572887512 1312.092196599987 479.2807058783552Q1315.1287661291572 477.97465446795934 1316.2062585427338 474.70952594196956Q1317.2510996710507 471.4117461307198 1317.2510996710507 464.35906851458185L1317.2510996710507 464.35906851458185L1317.2510996710507 426.2550186162808Q1317.2510996710507 412.41087366608406 1311.9615914589472 405.8153140435846Q1306.6720832468436 399.2197544210852 1295.6359488289982 399.2197544210852L1295.6359488289982 399.2197544210852Q1288.3547122160408 399.2197544210852 1280.942870462044 403.10525736701305Q1273.531028708047 406.99076031294095 1267.4252383644462 413.8148789322596L1267.4252383644462 413.8148789322596L1267.4252383644462 464.35906851458185Q1267.4252383644462 471.4117461307198 1268.4700794927626 474.70952594196956Q1269.5475719063397 477.97465446795934 1272.58414143551 479.2807058783552Q1275.6533622499405 480.5867572887512 1281.9877115903605 480.5867572887512L1281.9877115903605 480.5867572887512Q1282.7060398660783 480.5867572887512 1282.7060398660783 481.99076255492673Q1282.7060398660783 483.3947678211024 1281.9877115903605 483.3947678211024L1281.9877115903605 483.3947678211024Q1276.6002495224775 483.3947678211024 1273.531028708047 483.1662088242831L1273.531028708047 483.1662088242831L1260.8296787419467 482.9376498274638L1247.8997697790269 483.1662088242831Q1244.8632002498566 483.3947678211024 1239.4430868967133 483.3947678211024L1239.4430868967133 483.3947678211024Q1238.7247586209955 483.3947678211024 1238.7247586209955 481.99076255492673Q1238.7247586209955 480.5867572887512 1239.4430868967133 480.5867572887512L1239.4430868967133 480.5867572887512Q1245.7774362371338 480.5867572887512 1248.846657051564 479.2807058783552Q1251.9158778659944 477.97465446795934 1252.9607189943113 474.70952594196956Q1254.005560122628 471.4117461307198 1254.005560122628 464.35906851458185L1254.005560122628 464.35906851458185L1254.005560122628 417.7983357339672Q1254.005560122628 409.79877084529215 1252.1444368628136 406.2724320372232Q1250.2506623177396 402.7460932291542 1245.7774362371338 402.7460932291542L1245.7774362371338 402.7460932291542Q1242.0225384322453 402.7460932291542 1233.1087375562934 406.2724320372232L1233.1087375562934 406.2724320372232L1232.6189682773947 406.2724320372232Q1231.6720810048578 406.2724320372232 1231.3455681522587 405.22759090890645Q1230.9864040143998 404.1827497805897 1231.9332912869368 403.69298050169124L1231.9332912869368 403.69298050169124L1259.1971144789518 390.7630715387716Q1259.6542324725904 390.5345125419523 1260.6011197451273 390.5345125419523L1260.6011197451273 390.5345125419523Q1262.7234532870207 390.5345125419523 1265.0743458257334 395.9546258950954Q1267.4252383644462 401.34208796297855 1267.4252383644462 409.79877084529215L1267.4252383644462 409.79877084529215Q1276.339039240398 399.4809647031644 1285.154886260571 394.5179693436599Q1293.9707332807434 389.5876252694153 1303.374303435594 389.5876252694153L1303.374303435594 389.5876252694153Q1316.5654226805927 389.5876252694153 1323.6181002967305 396.8688618823725Q1330.6707779128687 404.1827497805897 1330.6707779128687 418.2881050128657L1330.6707779128687 418.2881050128657L1330.6707779128687 464.35906851458185Q1330.6707779128687 471.4117461307198 1331.7156190411852 474.70952594196956Q1332.760460169502 477.97465446795934 1335.8296809839326 479.2807058783552Q1338.8989017983627 480.5867572887512 1345.233251138783 480.5867572887512L1345.233251138783 480.5867572887512ZM1373.6725206001543 485.9742193566343Q1368.9707355227288 485.9742193566343 1366.1627249903781 483.1662088242831Q1363.3220631727668 480.32554700667197 1363.3220631727668 475.8849722113258L1363.3220631727668 475.8849722113258Q1363.3220631727668 471.4117461307198 1366.1627249903781 468.70168945414827Q1368.9707355227288 465.9916327775767 1373.6725206001543 465.9916327775767L1373.6725206001543 465.9916327775767Q1378.602864674399 465.9916327775767 1381.3129213509706 468.57108431310866Q1384.0229780275422 471.1831871339005 1384.0229780275422 475.8849722113258L1384.0229780275422 475.8849722113258Q1384.0229780275422 480.5867572887512 1381.3129213509706 483.2641626800628Q1378.602864674399 485.9742193566343 1373.6725206001543 485.9742193566343L1373.6725206001543 485.9742193566343ZM1409.1644676776637 483.3947678211024Q1408.7073496840248 483.3947678211024 1408.7073496840248 481.99076255492673Q1408.7073496840248 480.5867572887512 1409.1644676776637 480.5867572887512L1409.1644676776637 480.5867572887512Q1415.5314683033434 480.5867572887512 1418.698642973554 479.2807058783552Q1421.8658176437639 477.97465446795934 1423.04126391312 474.57892080092995Q1424.2167101824766 471.1831871339005 1424.2167101824766 464.35906851458185L1424.2167101824766 464.35906851458185L1424.2167101824766 420.37778726949915Q1424.2167101824766 411.92110438718555 1422.453540778442 408.16620658229726Q1420.6903713744077 404.411308777409 1416.4783555758809 404.411308777409L1416.4783555758809 404.411308777409Q1412.2336884920937 404.411308777409 1405.8993391516738 407.7090885886587L1405.8993391516738 407.7090885886587L1405.6381288695943 407.7090885886587Q1404.7238928823176 407.7090885886587 1404.234123603419 406.5336423193024Q1403.7770056097802 405.35819604994606 1404.4626826002382 404.86842677104755L1404.4626826002382 404.86842677104755L1435.024285603503 390.7630715387716L1435.9711728760399 390.5345125419523Q1436.460942154938 390.5345125419523 1437.146619145396 391.12223567663045Q1437.8649474211138 391.70995881130864 1437.8649474211138 392.42828708702643L1437.8649474211138 392.42828708702643Q1437.8649474211138 394.0608513500213 1437.6363884242946 401.83185724187706Q1437.3751781422156 409.57021184847287 1437.3751781422156 420.14922827267986L1437.3751781422156 420.14922827267986L1437.3751781422156 464.35906851458185Q1437.3751781422156 471.4117461307198 1438.5506244115718 474.70952594196956Q1439.726070680928 477.97465446795934 1442.7952914953585 479.2807058783552Q1445.864512309789 480.5867572887512 1452.198861650209 480.5867572887512L1452.198861650209 480.5867572887512Q1452.9171899259268 480.5867572887512 1452.9171899259268 481.99076255492673Q1452.9171899259268 483.3947678211024 1452.198861650209 483.3947678211024L1452.198861650209 483.3947678211024Q1446.7787482970662 483.3947678211024 1443.5136197710763 483.1662088242831L1443.5136197710763 483.1662088242831L1430.812269804976 482.9376498274638L1418.1109198388758 483.1662088242831Q1414.813140027626 483.3947678211024 1409.1644676776637 483.3947678211024L1409.1644676776637 483.3947678211024ZM1428.918495259902 363.0421303531181Q1423.9881511856574 363.0421303531181 1421.2780945090858 360.4300275323263Q1418.5680378325142 357.85057599679436 1418.5680378325142 353.14879091936905L1418.5680378325142 353.14879091936905Q1418.5680378325142 348.44700584194374 1421.2780945090858 345.8675543064118Q1423.9881511856574 343.28810277087985 1428.918495259902 343.28810277087985L1428.918495259902 343.28810277087985Q1433.6202803373271 343.28810277087985 1436.199731872859 345.8675543064118Q1438.8118346936512 348.44700584194374 1438.8118346936512 353.14879091936905L1438.8118346936512 353.14879091936905Q1438.8118346936512 357.85057599679436 1436.199731872859 360.4300275323263Q1433.6202803373271 363.0421303531181 1428.918495259902 363.0421303531181L1428.918495259902 363.0421303531181ZM1515.2158422018124 486.4639886355328Q1501.5676049631752 486.4639886355328 1491.1191936800078 479.7378238719938Q1480.6381311115802 473.0443103937147 1474.9894587616182 461.6490118380103Q1469.3734376969155 450.25371328230585 1469.3734376969155 436.8340350404878L1469.3734376969155 436.8340350404878Q1469.3734376969155 421.55323353885547 1476.7526281656524 410.8762632588688Q1484.1644699196495 400.16664169362224 1495.8209787574328 394.87713348151874Q1507.4448363099568 389.5876252694153 1519.4278580003393 389.5876252694153L1519.4278580003393 389.5876252694153Q1533.304654235796 389.5876252694153 1543.6551116631836 396.41174388873395Q1554.0055690905715 403.23586250805266 1559.5236362994942 414.4026020669378Q1565.041703508417 425.5693416258229 1565.041703508417 438.0094813098441L1565.041703508417 438.0094813098441Q1565.041703508417 452.60460582101854 1558.2175848890984 463.5427863830844Q1551.3934662697793 474.44831565989034 1539.998167714075 480.4561521477116Q1528.6028691583706 486.4639886355328 1515.2158422018124 486.4639886355328L1515.2158422018124 486.4639886355328ZM1522.0073095358712 481.99076255492673Q1534.937218498791 481.99076255492673 1541.9898961149288 472.8157513968954Q1549.042573731067 463.64074023886405 1549.042573731067 444.6050409323435L1549.042573731067 444.6050409323435Q1549.042573731067 430.04256770642894 1544.2428347978616 418.516664009685Q1539.4104445793969 406.99076031294095 1530.9537616970833 400.52580583148114Q1522.4970788147698 394.0608513500213 1511.6895033937435 394.0608513500213L1511.6895033937435 394.0608513500213Q1498.9881534276433 394.0608513500213 1492.033429667285 403.23586250805266Q1485.1113571921865 412.41087366608406 1485.1113571921865 429.5527984275305L1485.1113571921865 429.5527984275305Q1485.1113571921865 443.8867126566257 1489.813142269612 455.9023856322682Q1494.514927347037 467.88540732265085 1502.9716102293505 474.93808493878873Q1511.428293111664 481.99076255492673 1522.0073095358712 481.99076255492673L1522.0073095358712 481.99076255492673Z " fill="#ffe67c" transform="matrix(0.5616083131193036,0,0,0.5616083131193036,-3.940369801781265,68.91842446987731)"/></g></svg>